# xmcd
#
# Track frame offsets: 
#        150
#        26942
#        53276
#        80426
#        108734
#        135549
#
# Disc length: 2125 seconds
#
# Revision: 0
# Processed by: cddbd v1.5.2PL0 Copyright (c) Steve Scherf et al.
# Submitted via: ExactAudioCopy v1.0b3
#
DISCID=47084b06
DTITLE=Grand Tour - On Such A Winter's Day
DYEAR=1977
DGENRE=Disco
TTITLE0=The Grand Tour
TTITLE1=Let's Go Boating
TTITLE2=Still I'm Sad
TTITLE3=Flight From Versailles
TTITLE4=Late November
TTITLE5=California Dreamin'
EXTD=
EXTT0=
EXTT1=
EXTT2=
EXTT3=
EXTT4=
EXTT5=
PLAYORDER=
